<?xml version="1.0" encoding="UTF-8"?>
<svg id="Layer_2" data-name="Layer 2" xmlns="http://www.w3.org/2000/svg" viewBox="0 0 133.25 45.72">
  <g id="Layer_1-2" data-name="Layer 1">
    <path d="M20.94,23.52v20.82h-1.8v-22.02c0-2.6-.66-4.56-1.98-5.88s-3.16-1.98-5.52-1.98c-2.8,0-5.14.91-7.02,2.73-1.88,1.82-2.82,3.93-2.82,6.33v20.82H0V13.32h1.8v5.4h.12c2.28-3.92,5.62-5.88,10.02-5.88,2.28,0,4.15.55,5.61,1.65,1.46,1.1,2.41,2.65,2.85,4.65h.18c.88-1.88,2.21-3.4,3.99-4.56,1.78-1.16,3.91-1.74,6.39-1.74,2.88,0,5.11.84,6.69,2.52,1.58,1.68,2.37,3.94,2.37,6.78v22.2h-1.8v-22.02c0-2.6-.66-4.56-1.98-5.88s-3.18-1.98-5.58-1.98c-2.84,0-5.17.87-6.99,2.61-1.82,1.74-2.73,3.89-2.73,6.45ZM69.25,44.7c-2.48,0-3.72-1.42-3.72-4.26v-2.1h-.12c-.8,1.88-2.23,3.45-4.29,4.71s-4.55,1.89-7.47,1.89-5.4-.75-7.2-2.25c-1.8-1.5-2.7-3.55-2.7-6.15,0-1.64.3-3.03.9-4.17.6-1.14,1.51-2.03,2.73-2.67,1.22-.64,2.46-1.12,3.72-1.44s2.81-.6,4.65-.84c3.96-.44,6.58-.95,7.86-1.53,1.28-.58,1.92-1.67,1.92-3.27v-.48c0-5.16-2.88-7.74-8.64-7.74-6.2,0-9.5,2.62-9.9,7.86h-1.86c.24-2.92,1.31-5.23,3.21-6.93,1.9-1.7,4.75-2.55,8.55-2.55,3.44,0,6.04.8,7.8,2.4,1.76,1.6,2.64,3.94,2.64,7.02v18.06c0,1.96.76,2.94,2.28,2.94.44,0,.98-.14,1.62-.42h.18v1.44c-.56.32-1.28.48-2.16.48ZM53.77,43.38c3.44,0,6.26-.96,8.46-2.88,2.2-1.92,3.3-4.34,3.3-7.26v-6.96c-1.48,1.16-4.62,2.04-9.42,2.64-3.64.44-6.31,1.18-8.01,2.22-1.7,1.04-2.55,2.86-2.55,5.46,0,2.32.8,4.03,2.4,5.13,1.6,1.1,3.54,1.65,5.82,1.65ZM70.34,14.88v-1.56h4.5V3.72h1.8v9.6h6.78v1.56h-6.78v24.54c0,1.28.29,2.21.87,2.79.58.58,1.55.87,2.91.87,1.04,0,1.98-.16,2.82-.48h.12v1.56c-.88.32-1.96.48-3.24.48-3.52,0-5.28-1.7-5.28-5.1V14.88h-4.5ZM88.83,40.38v3.96h-2.22v-3.96h2.22ZM106.91,28.68c5.16-14.22,5.4-14.94,5.4-17.04,0-2.52-2.7-3.96-6.18-3.96s-6.18,1.2-7.8,2.88l-1.02-.42c2.28-5.46,5.88-10.14,12.18-10.14,3.36,0,6.72,1.98,6.72,5.94,0,3.06-2.16,6.96-4.56,13.74l-1.26,3.54c3.24-5.46,8.34-10.08,14.4-10.08,4.26,0,7.44,2.4,7.44,6.78,0,5.64-5.28,11.1-12.96,11.1-4.68,0-7.5-1.8-9.54-3.36,3.48,7.26,8.52,10.26,15.24,10.26,3.54,0,5.46-.6,7.32-3.72l.96.72c-1.26,4.14-4.98,10.8-10.86,10.8-6.96,0-10.98-8.82-13.68-17.82l-.72,2.1c-1.62,4.5-3.12,11.1,3.72,13.56v.78h-18.42v-.78c7.44-1.56,11.76-9.78,13.62-14.88ZM109.49,25.98c1.74,1.32,4.86,3.84,10.02,3.84s7.38-2.58,7.38-4.74c0-2.04-1.98-4.26-7.14-4.26-3.78,0-7.5,1.26-10.26,5.16Z"/>
  </g>
</svg>